<svg id="visual" viewBox="0 0 900 600" width="900" height="600" xmlns="http://www.w3.org/2000/svg" xmlns:xlink="http://www.w3.org/1999/xlink" version="1.1"><rect x="0" y="0" width="900" height="600" fill="#001220"></rect><defs><linearGradient id="grad1_0" x1="33.3%" y1="0%" x2="100%" y2="100%"><stop offset="20%" stop-color="#001220" stop-opacity="1"></stop><stop offset="80%" stop-color="#001220" stop-opacity="1"></stop></linearGradient></defs><defs><linearGradient id="grad2_0" x1="0%" y1="0%" x2="66.7%" y2="100%"><stop offset="20%" stop-color="#001220" stop-opacity="1"></stop><stop offset="80%" stop-color="#001220" stop-opacity="1"></stop></linearGradient></defs><g transform="translate(900, 0)"><path d="M0 243.4C-26.5 220 -52.9 196.6 -74.2 179.2C-95.6 161.9 -111.8 150.7 -139.3 139.3C-166.8 127.9 -205.6 116.4 -224.8 93.1C-244.1 69.9 -243.7 34.9 -243.4 0L0 0Z" fill="#FF0066"></path></g><g transform="translate(0, 600)"><path d="M0 -243.4C23.5 -220.1 47 -196.8 78.1 -188.5C109.2 -180.1 147.9 -186.8 172.1 -172.1C196.3 -157.4 205.8 -121.4 215.3 -89.2C224.7 -56.9 234 -28.5 243.4 0L0 0Z" fill="#FF0066"></path></g></svg>